<svg width="47" height="50" viewBox="0 0 47 50" fill="none" xmlns="http://www.w3.org/2000/svg">
<path fill-rule="evenodd" clip-rule="evenodd" d="M21.6556 15.5848C21.6697 15.4024 21.8217 15.2616 22.0046 15.2616H23.5513C23.7311 15.2616 23.8816 15.3978 23.8995 15.5768L24.9618 26.1991L32.4417 30.4733C32.5507 30.5356 32.618 30.6516 32.618 30.7772V32.3034C32.618 32.5341 32.3986 32.7017 32.1759 32.641L20.8658 29.5565C20.7039 29.5123 20.5961 29.3593 20.6089 29.1919L21.6556 15.5848Z" fill="#5577FF"/>
<path fill-rule="evenodd" clip-rule="evenodd" d="M11.3269 0.825258C11.142 0.604935 10.7851 0.689263 10.7184 0.969027L7.67501 13.728C7.62063 13.9559 7.80128 14.1719 8.03526 14.1586L21.1605 13.4148C21.4481 13.3985 21.594 13.0611 21.4088 12.8404L17.8503 8.59946C19.7613 7.94642 21.7878 7.60533 23.8687 7.60533C34.1377 7.60533 42.4624 15.93 42.4624 26.1991C42.4624 36.4681 34.1377 44.7928 23.8687 44.7928C13.5996 44.7928 5.2749 36.4681 5.2749 26.1991C5.2749 24.4752 5.50835 22.7867 5.96355 21.1639L1.75113 19.9823C1.19652 21.9596 0.899902 24.0447 0.899902 26.1991C0.899902 38.8844 11.1834 49.1678 23.8687 49.1678C36.5539 49.1678 46.8374 38.8844 46.8374 26.1991C46.8374 13.5138 36.5539 3.23033 23.8687 3.23033C20.6779 3.23033 17.639 3.88096 14.8776 5.05679L11.3269 0.825258Z" fill="#5577FF"/>
</svg>
