<?xml version="1.0" encoding="iso-8859-1"?>
<!-- Uploaded to: SVG Repo, www.svgrepo.com, Generator: SVG Repo Mixer Tools -->
<!DOCTYPE svg PUBLIC "-//W3C//DTD SVG 1.1//EN" "http://www.w3.org/Graphics/SVG/1.1/DTD/svg11.dtd">
<svg fill="#000000" height="800px" width="800px" version="1.1" id="Capa_1" xmlns="http://www.w3.org/2000/svg" xmlns:xlink="http://www.w3.org/1999/xlink" 
	 viewBox="0 0 347.094 347.094" xml:space="preserve">
<g>
	<path d="M188.556,143.804c-3.167-2.671-7.899-2.264-10.567,0.905l-56.365,66.928c-2.475-0.864-5.129-1.339-7.895-1.339
		c-6.675,0-12.721,2.739-17.078,7.15l-48.788-36.895c0.276-2.417,0.199-4.895-0.268-7.358c-1.808-9.528-9.423-17.144-18.95-18.949
		c-1.533-0.29-3.092-0.438-4.63-0.438c-7.179,0-13.923,3.172-18.505,8.704c-4.58,5.53-6.43,12.8-5.076,19.943
		c1.807,9.529,9.422,17.145,18.951,18.951c1.533,0.29,3.091,0.438,4.63,0.438c6.593,0,12.816-2.683,17.338-7.408l48.57,36.73
		c-0.136,1.032-0.213,2.082-0.213,3.149c0,13.244,10.774,24.019,24.019,24.019s24.019-10.774,24.019-24.019
		c0-5.024-1.553-9.691-4.201-13.551l55.915-66.394C192.13,151.203,191.724,146.472,188.556,143.804z M30.966,183.572
		c-2.108,2.545-5.426,3.738-8.788,3.097c-3.412-0.646-6.359-3.594-7.006-7.006c-0.527-2.781,0.144-5.474,1.891-7.582
		c1.723-2.08,4.256-3.272,6.952-3.272c0.604,0,1.222,0.059,1.837,0.176c3.412,0.646,6.358,3.593,7.005,7.005
		C33.384,178.771,32.712,181.464,30.966,183.572z M113.728,243.335c-4.973,0-9.019-4.046-9.019-9.019s4.046-9.019,9.019-9.019
		s9.019,4.046,9.019,9.019S118.701,243.335,113.728,243.335z"/>
	<path d="M230.031,128.091c4.58-5.529,6.43-12.799,5.076-19.942c-1.806-9.529-9.421-17.146-18.95-18.952
		c-1.533-0.29-3.091-0.438-4.629-0.438c-7.179,0-13.923,3.173-18.505,8.705c-4.581,5.53-6.431,12.8-5.077,19.943
		c1.807,9.529,9.423,17.145,18.951,18.95c1.533,0.29,3.092,0.438,4.63,0.438C218.705,136.795,225.449,133.623,230.031,128.091z
		 M218.478,118.523c-2.107,2.545-5.424,3.735-8.789,3.096c-3.412-0.646-6.358-3.593-7.005-7.005
		c-0.527-2.781,0.145-5.474,1.891-7.582c1.723-2.08,4.257-3.273,6.953-3.273c0.604,0,1.221,0.059,1.836,0.176
		c3.412,0.646,6.358,3.593,7.005,7.006C220.896,113.722,220.226,116.415,218.478,118.523z"/>
	<path d="M344.897,167.599l-52.629-52.629c-2.93-2.928-7.678-2.928-10.607,0l-52.629,52.629c-2.145,2.146-2.786,5.371-1.625,8.174
		c1.16,2.803,3.896,4.63,6.929,4.63h21.998v46.872c0,4.143,3.357,7.5,7.5,7.5s7.5-3.357,7.5-7.5v-54.372c0-4.143-3.357-7.5-7.5-7.5
		h-11.392l34.522-34.522l34.522,34.522h-11.392c-4.143,0-7.5,3.357-7.5,7.5v46.872h-12.051c-4.143,0-7.5,3.357-7.5,7.5
		s3.357,7.5,7.5,7.5h19.551c4.143,0,7.5-3.357,7.5-7.5v-46.872h21.998c3.033,0,5.769-1.827,6.929-4.63
		C347.684,172.97,347.042,169.744,344.897,167.599z"/>
</g>
</svg>